<?xml version="1.0" encoding="utf-8"?>
<!-- Generator: Adobe Illustrator 23.0.0, SVG Export Plug-In . SVG Version: 6.00 Build 0)  -->
<svg version="1.1" id="Layer_1" xmlns="http://www.w3.org/2000/svg" xmlns:xlink="http://www.w3.org/1999/xlink" x="0px" y="0px"
	 viewBox="0 0 1265.85 637.7" style="enable-background:new 0 0 1265.85 637.7;" xml:space="preserve">
<style type="text/css">
	.st0{fill:url(#SVGID_1_);}
	.st1{fill:#BA8332;}
	.st2{fill:#D1A04A;}
	.st3{fill:#EAC07D;}
	.st4{fill:#C99645;}
	.st5{opacity:0.2;}
	.st6{fill:none;stroke:#BA8332;stroke-width:6;stroke-miterlimit:10;}
	.st7{fill:#AA7329;}
	.st8{opacity:0.6;}
	.st9{fill:#FF0000;}
	.st10{opacity:0.6;fill:none;stroke:#FF0000;stroke-width:2;stroke-miterlimit:10;}
</style>
<radialGradient id="SVGID_1_" cx="2092.1338" cy="-7164.2144" r="196" gradientTransform="matrix(3.2296 0 0 0.1786 -6155.7378 1849.324)" gradientUnits="userSpaceOnUse">
	<stop  offset="0" style="stop-color:#000000;stop-opacity:0.2"/>
	<stop  offset="1" style="stop-color:#000000;stop-opacity:0"/>
</radialGradient>
<ellipse class="st0" cx="601" cy="570" rx="633" ry="35"/>
<g>
	<rect x="547.63" y="28" class="st1" width="349.98" height="271"/>
	<rect x="200" y="220" class="st2" width="452" height="350"/>
	<polygon class="st3" points="455,289 441.89,279 426,299 411.49,269 397,289 397,220 455,220 	"/>
	<rect x="652" y="299" class="st4" width="349.98" height="271"/>
	<polygon class="st3" points="856,368 842.89,358 827,378 812.49,348 798,368 798,299 856,299 	"/>
	<rect x="652" y="299" class="st5" width="10" height="271"/>
	<polyline class="st6" points="443.5,152.5 547.5,30.5 897.5,30.5 1001.5,152.5 	"/>
	<polygon class="st7" points="907.61,149 537.63,149 547.63,28 897.61,28 	"/>
	<g>
		<g class="st8">
			<path class="st9" d="M253.61,460.38l14.46,5.7l-0.97,2.45l-11.71-4.62l-2.81,7.11l11.48,4.53l-0.97,2.45l-11.48-4.53l-3.97,10.06
				l-2.75-1.08L253.61,460.38z"/>
			<path class="st9" d="M273.71,483.68l-4.4-1.74l-3.46,8.77l-2.75-1.08l8.71-22.07l8.87,3.5c4.04,1.59,5.9,5.31,4.29,9.38
				c-1.57,3.97-5.14,5.08-8.26,4.16l2.41,11.35l-3.24-1.28L273.71,483.68z M279.38,473.38l-5.79-2.28l-3.33,8.44l5.79,2.28
				c2.61,1.03,5.09-0.02,6.07-2.5C283.1,476.83,281.99,474.41,279.38,473.38z"/>
			<path class="st9" d="M299.05,498.15l-11.18-4.41l-3.88,4.13l-3.04-1.2l17.57-18.57l3.41,1.34l0.19,25.58l-3.04-1.2L299.05,498.15
				z M289.62,491.61l9.56,3.77l0.08-14.16L289.62,491.61z"/>
			<path class="st9" d="M323.07,487.36c3.9,1.54,5.94,4.33,6.94,7.52l-2.72,0.5c-0.68-2.34-2.54-4.52-5.19-5.56
				c-4.83-1.91-9.97,0.35-12.04,5.61c-2.06,5.23,0.12,10.45,4.95,12.36c2.65,1.04,5.34,0.62,6.86-0.05l1.78-4.5l-7.58-2.99
				l0.97-2.45l10.32,4.07l-3.15,7.98c-2.95,1.47-6.56,1.81-10.17,0.39c-6.29-2.48-9.54-9.08-6.83-15.93S316.79,484.88,323.07,487.36
				z"/>
			<path class="st9" d="M336.07,492.91l2.75,1.08l-8.71,22.07l-2.75-1.08L336.07,492.91z"/>
			<path class="st9" d="M343.97,496.03l2.75,1.08l-7.74,19.62l10.26,4.05l-0.97,2.45l-13-5.13L343.97,496.03z"/>
			<path class="st9" d="M360.85,502.69l14.46,5.7l-0.97,2.45l-11.71-4.62l-2.81,7.11l11.48,4.53l-0.97,2.45l-11.48-4.53l-3,7.61
				l11.71,4.62l-0.97,2.45l-14.46-5.7L360.85,502.69z"/>
		</g>
		<path class="st10" d="M363.09,541.24l-122.86-48.47c-5.98-2.36-8.92-9.12-6.56-15.1l8.47-21.48c2.36-5.98,9.12-8.92,15.1-6.56
			l122.86,48.47c5.98,2.36,8.92,9.12,6.56,15.1l-8.47,21.48C375.83,540.66,369.07,543.6,363.09,541.24z"/>
	</g>
</g>
</svg>
