<?xml version="1.0" encoding="utf-8"?>
<!-- Generator: Adobe Illustrator 23.0.0, SVG Export Plug-In . SVG Version: 6.00 Build 0)  -->
<svg version="1.1" id="Layer_1" xmlns="http://www.w3.org/2000/svg" xmlns:xlink="http://www.w3.org/1999/xlink" x="0px" y="0px"
	 viewBox="0 0 1117.85 815.7" style="enable-background:new 0 0 1117.85 815.7;" xml:space="preserve">
<style type="text/css">
	.st0{fill:url(#SVGID_1_);}
	.st1{clip-path:url(#SVGID_3_);fill:#7ADAF4;}
	.st2{clip-path:url(#SVGID_3_);}
	.st3{fill:#FFFFFF;}
	.st4{opacity:0.1;}
	.st5{fill:#EFAD81;}
	.st6{fill:#DD905B;}
	.st7{fill:#994C11;}
	.st8{fill:#823A08;}
	.st9{fill:#D8D8D8;}
	.st10{fill:#A5A5A5;}
	.st11{fill:#3636E0;}
	.st12{fill:#2727C1;}
</style>
<radialGradient id="SVGID_1_" cx="1448.7657" cy="-6817.6143" r="196" gradientTransform="matrix(1.7041 0 0 0.1786 -1891.8152 1922.4312)" gradientUnits="userSpaceOnUse">
	<stop  offset="0" style="stop-color:#000000;stop-opacity:0.2"/>
	<stop  offset="1" style="stop-color:#000000;stop-opacity:0"/>
</radialGradient>
<ellipse class="st0" cx="577" cy="705" rx="334" ry="35"/>
<g>
	<g>
		<defs>
			<circle id="SVGID_2_" cx="587.04" cy="399.66" r="302.34"/>
		</defs>
		<clipPath id="SVGID_3_">
			<use xlink:href="#SVGID_2_"  style="overflow:visible;"/>
		</clipPath>
		<circle class="st1" cx="597.44" cy="382.06" r="343.93"/>
		<g class="st2">
			<polygon class="st3" points="324.73,789.98 256.37,789.98 256.37,497.15 290.55,462.05 324.73,497.15 			"/>
			<polygon class="st3" points="442.05,789.98 373.69,789.98 373.69,497.15 407.87,462.05 442.05,497.15 			"/>
			<polygon class="st3" points="559.36,789.98 491.01,789.98 491.01,497.15 525.18,462.05 559.36,497.15 			"/>
			<polygon class="st3" points="676.68,789.98 608.32,789.98 608.32,497.15 642.5,462.05 676.68,497.15 			"/>
			<polygon class="st3" points="794,789.98 725.64,789.98 725.64,497.15 759.82,462.05 794,497.15 			"/>
			<polygon class="st3" points="911.32,789.98 842.96,789.98 842.96,497.15 877.14,462.05 911.32,497.15 			"/>
			<rect x="306.25" y="579.83" class="st3" width="570.88" height="36.95"/>
			<rect x="324.73" y="579.83" class="st4" width="3.7" height="36.95"/>
			<rect x="442.05" y="579.83" class="st4" width="3.7" height="36.95"/>
			<rect x="559.83" y="579.83" class="st4" width="3.7" height="36.95"/>
			<rect x="676.68" y="579.83" class="st4" width="3.23" height="36.95"/>
			<rect x="794" y="579.83" class="st4" width="3.23" height="36.95"/>
			<rect x="369.53" y="579.83" class="st4" width="3.7" height="36.95"/>
			<rect x="486.85" y="579.83" class="st4" width="3.7" height="36.95"/>
			<rect x="604.63" y="579.83" class="st4" width="3.7" height="36.95"/>
			<rect x="721.48" y="579.83" class="st4" width="3.23" height="36.95"/>
			<rect x="838.8" y="579.83" class="st4" width="3.23" height="36.95"/>
		</g>
	</g>
	<path class="st5" d="M850.42,122.2L672.67,299.95c-5.1,5.1-12.09,7.95-19.3,7.61c-21.69-1.01-43.72,6.77-60.29,23.33l-89.78,89.78
		c-31.19,31.19-32.09,81.98-1.14,113.39c31.2,31.67,82.16,31.81,113.54,0.43l90.49-90.49c16.57-16.57,24.34-38.59,23.33-60.29
		c-0.33-7.21,2.51-14.2,7.61-19.3l177.75-177.75L850.42,122.2z"/>
	<path class="st6" d="M502.59,534.5c31.24,31.23,81.88,31.24,113.11,0l90.49-90.49c16.57-16.57,24.34-38.59,23.33-60.29
		c-0.33-7.2,2.51-14.2,7.61-19.3l177.75-177.75l-32.24-32.24L502.59,534.5z"/>
	<path class="st7" d="M317.36,124.29l177.75,177.75c5.1,5.1,12.09,7.95,19.3,7.61c21.69-1.01,43.72,6.77,60.29,23.33l89.78,89.78
		c31.19,31.19,32.09,81.98,1.14,113.39c-31.2,31.67-82.16,31.81-113.54,0.43l-90.49-90.49c-16.57-16.57-24.34-38.59-23.33-60.29
		c0.33-7.21-2.51-14.2-7.61-19.3L252.88,188.76L317.36,124.29z"/>
	<path class="st8" d="M665.18,536.59c-31.24,31.23-81.88,31.24-113.11,0l-90.49-90.49c-16.57-16.57-24.34-38.59-23.33-60.29
		c0.33-7.2-2.51-14.2-7.61-19.3L252.88,188.76l32.24-32.24L665.18,536.59z"/>
	
		<rect x="306.25" y="111.61" transform="matrix(0.7071 -0.7071 0.7071 0.7071 -60.7708 328.5735)" class="st3" width="119.98" height="252.07"/>
	
		<rect x="315.03" y="132.82" transform="matrix(0.7071 -0.7071 0.7071 0.7071 -81.9798 319.7885)" class="st9" width="59.99" height="252.07"/>
	<circle class="st10" cx="411.81" cy="344.3" r="8"/>
	
		<rect x="269.29" y="94.64" transform="matrix(0.7071 -0.7071 0.7071 0.7071 -53.7428 311.6063)" class="st11" width="159.97" height="252.07"/>
	
		<rect x="281" y="122.92" transform="matrix(0.7071 -0.7071 0.7071 0.7071 -82.0214 299.8929)" class="st12" width="79.98" height="252.07"/>
	<polygon class="st5" points="622.23,379.67 581.84,420.06 527.01,397.22 583.4,340.84 	"/>
	<g>
		<g>
			<path class="st5" d="M590.24,524.44c-7.07-7.07-18.53-7.07-25.59,0c-0.78,0.78-1.47,1.63-2.08,2.51l-27.34,27.34
				c17.05,5.32,35.52,4.81,52.29-1.54l2.89-2.89l-0.01-0.01C597.3,542.76,597.25,531.44,590.24,524.44z"/>
			<path class="st6" d="M590.41,524.62l-33.26,33.26c10.29,0.26,20.63-1.45,30.38-5.14l2.89-2.89l-0.01-0.01
				C597.24,542.82,597.24,531.64,590.41,524.62z"/>
		</g>
		<g>
			<path class="st5" d="M513.46,447.66c-7.07-7.07-18.53-7.07-25.59,0c-0.78,0.78-1.45,1.62-2.06,2.49l-2.11,2.11
				c-5.58,16.54-5.71,34.53-0.3,51.05l30-30c0.02-0.02,0.04-0.04,0.06-0.06c0.02-0.02,0.04-0.04,0.06-0.06l0.12-0.12l-0.01-0.01
				C520.52,465.98,520.47,454.66,513.46,447.66z"/>
			<path class="st6" d="M513.63,447.84l-34.1,34.1c0.32,7.23,1.61,14.43,3.88,21.36l30-30c0.02-0.02,0.04-0.04,0.06-0.06
				c0.02-0.02,0.04-0.04,0.06-0.06l0.12-0.12l-0.01-0.01C520.46,466.04,520.46,454.86,513.63,447.84z"/>
		</g>
		<g>
			<path class="st5" d="M555.05,457.25c-7.07-7.07-18.53-7.07-25.59,0c-0.78,0.78-1.46,1.62-2.07,2.5l-43.88,43.89
				c3.69,11.11,9.9,21.55,18.66,30.44c0.27,0.28,0.55,0.55,0.83,0.82l52.01-52.01c0.01-0.01,0.03-0.02,0.04-0.04
				c0.01-0.01,0.02-0.03,0.04-0.04l0.14-0.14l-0.01-0.01C562.11,475.58,562.06,464.26,555.05,457.25z"/>
			<path class="st6" d="M555.05,482.85c0.01-0.01,0.02-0.03,0.04-0.04l0.14-0.14l-0.01-0.01c6.83-7.02,6.83-18.2-0.01-25.22
				l-63.5,63.5c2.95,4.65,6.42,9.06,10.44,13.14c0.27,0.28,0.55,0.55,0.83,0.82l52.01-52.01
				C555.02,482.87,555.04,482.86,555.05,482.85z"/>
		</g>
		<g>
			<path class="st5" d="M534.9,554.18l37.72-37.72c0.01-0.01,0.01-0.01,0.02-0.02c0.01-0.01,0.01-0.01,0.02-0.02l0.16-0.16
				l-0.01-0.01c6.89-7.08,6.84-18.4-0.17-25.4c-7.07-7.07-18.53-7.07-25.59,0c-0.78,0.78-1.46,1.63-2.07,2.5l-41.77,41.77
				C512.46,544.16,523.34,550.51,534.9,554.18z"/>
			<path class="st6" d="M572.81,491.03l-55.25,55.25c5.51,3.36,11.33,6,17.34,7.9l37.72-37.72c0.01-0.01,0.01-0.01,0.02-0.02
				c0.01-0.01,0.01-0.01,0.02-0.02l0.16-0.16l-0.01-0.01C579.65,509.23,579.64,498.05,572.81,491.03z"/>
		</g>
	</g>
</g>
</svg>
