<?xml version="1.0" encoding="utf-8"?>
<!-- Generator: Adobe Illustrator 23.0.0, SVG Export Plug-In . SVG Version: 6.00 Build 0)  -->
<svg version="1.1" id="Layer_1" xmlns="http://www.w3.org/2000/svg" xmlns:xlink="http://www.w3.org/1999/xlink" x="0px" y="0px"
	 viewBox="0 0 1117.85 815.7" style="enable-background:new 0 0 1117.85 815.7;" xml:space="preserve">
<style type="text/css">
	.st0{fill:url(#SVGID_1_);}
	.st1{fill:#FFDF22;}
	.st2{opacity:0.1;}
	.st3{opacity:0.5;fill:#FFFFFF;}
	.st4{opacity:0.5;}
	.st5{fill:#FFFFFF;}
	.st6{clip-path:url(#SVGID_3_);}
	.st7{fill:#A83E14;}
	.st8{opacity:0.1;clip-path:url(#SVGID_5_);}
	.st9{fill:#A53A3A;}
	.st10{fill:#912F2F;}
	.st11{fill:#C9C9C9;}
	.st12{fill:#28931C;}
</style>
<radialGradient id="SVGID_1_" cx="1917.3909" cy="-6462.8491" r="196" gradientTransform="matrix(2.7653 0 0 0.1786 -4743.2466 1922.4312)" gradientUnits="userSpaceOnUse">
	<stop  offset="0" style="stop-color:#000000;stop-opacity:0.2"/>
	<stop  offset="1" style="stop-color:#000000;stop-opacity:0"/>
</radialGradient>
<ellipse class="st0" cx="558.93" cy="768.35" rx="542" ry="35"/>
<g>
	<g>
		<circle class="st1" cx="762.62" cy="180.83" r="83.95"/>
		<path class="st2" d="M692.61,204.55c6.94,20.48,21.98,35.92,40.33,43.97c-15.59-8.59-28.14-22.81-34.3-41
			c-13.1-38.67,7.62-80.63,46.28-93.74c18.19-6.16,37.11-4.84,53.41,2.31c-17.55-9.68-38.95-12.23-59.43-5.29
			C700.22,123.92,679.5,165.89,692.61,204.55z"/>
		<path class="st2" d="M810.62,158.31c10.39,30.66-6.04,63.93-36.7,74.32c-13.9,4.71-28.34,3.91-40.94-1.24
			c14.16,8.29,31.69,10.62,48.45,4.94c30.66-10.39,47.09-43.66,36.7-74.32c-5.68-16.76-18.19-29.26-33.38-35.46
			C796.49,133.43,805.91,144.41,810.62,158.31z"/>
		<path class="st3" d="M840.79,153.22c14.88,43.91-8.65,91.58-52.56,106.46c-21.7,7.36-44.32,5.32-63.44-3.91
			c19.4,9.79,42.57,12.1,64.78,4.57c43.91-14.88,67.45-62.55,52.56-106.46c-7.53-22.21-23.44-39.2-43.02-48.65
			C818.07,114.8,833.43,131.52,840.79,153.22z"/>
		<path class="st3" d="M707.11,199.64c5.34,15.76,16.73,27.75,30.69,34.28c-12.93-6.73-23.39-18.27-28.44-33.17
			c-10.39-30.66,6.04-63.93,36.7-74.32c14.9-5.05,30.42-3.76,43.63,2.41c-13.68-7.12-30.12-8.86-45.88-3.53
			C713.15,135.71,696.72,168.98,707.11,199.64z"/>
		<g class="st4">
			<polygon class="st5" points="725.1,196.81 727.11,197.79 722.28,183.53 797.51,158.03 797.01,156.53 720.27,182.54 			"/>
		</g>
		<g class="st2">
			<polygon points="757.57,212.74 761.25,214.56 767.87,201.92 764.16,200.15 			"/>
			<polygon points="802.58,172.99 746.9,191.86 750.66,193.65 806.26,174.8 800.69,158.35 796.72,156.44 			"/>
		</g>
	</g>
	<g>
		<circle class="st1" cx="593.61" cy="77.83" r="65.19"/>
		<path class="st2" d="M632.36,35.49c-12.39-11.33-28.4-16.21-43.9-14.82c13.82,0.01,27.68,4.98,38.68,15.05
			c23.39,21.4,25,57.71,3.6,81.09c-10.07,11-23.43,17.18-37.2,18.42c15.56,0.01,31.08-6.26,42.41-18.65
			C657.36,93.19,655.75,56.89,632.36,35.49z"/>
		<path class="st2" d="M569.38,111.12c-18.54-16.97-19.82-45.75-2.85-64.3c7.69-8.41,17.82-13.27,28.31-14.48
			c-12.73-0.34-25.54,4.64-34.81,14.77c-16.97,18.54-15.69,47.33,2.85,64.3c10.13,9.27,23.33,13.1,35.98,11.63
			C588.31,122.76,577.79,118.81,569.38,111.12z"/>
		<path class="st3" d="M550.76,125.88c-26.56-24.3-28.39-65.54-4.09-92.1c12.01-13.13,28.16-20.21,44.62-21.09
			c-16.87,0.6-33.49,7.7-45.78,21.14c-24.3,26.56-22.47,67.8,4.09,92.1c13.43,12.29,30.62,17.9,47.47,17
			C580.6,143.51,563.89,137.89,550.76,125.88z"/>
		<path class="st3" d="M624.33,44.26c-9.53-8.72-21.77-12.62-33.71-11.83c11.32-0.26,22.75,3.67,31.76,11.92
			c18.54,16.97,19.82,45.75,2.85,64.3c-8.25,9.01-19.29,13.95-30.58,14.69c11.97-0.28,23.81-5.24,32.53-14.77
			C644.15,90.01,642.87,61.23,624.33,44.26z"/>
		<g class="st4">
			<polygon class="st5" points="613.15,52.92 611.42,53 620.04,60.89 578.4,106.4 579.31,107.23 621.78,60.82 			"/>
		</g>
		<g class="st2">
			<polygon points="585.1,54.23 581.92,54.37 582.14,65.45 585.32,65.26 			"/>
			<polygon points="569.36,98.13 600.17,64.45 596.95,64.63 566.17,98.27 576.12,107.37 579.53,107.19 			"/>
		</g>
	</g>
	<g>
		<circle class="st1" cx="594.18" cy="320.12" r="111.72"/>
		<path class="st2" d="M564.72,226.26c-27.45,8.61-48.45,28.15-59.72,52.33c11.9-20.48,31.2-36.75,55.58-44.4
			c51.84-16.27,107.05,12.57,123.31,64.41c7.65,24.38,5.32,49.51-4.69,70.98c13.4-23.06,17.44-51.46,8.83-78.91
			C671.77,238.83,616.56,209.99,564.72,226.26z"/>
		<path class="st2" d="M622.69,384.66c-41.1,12.9-84.87-9.97-97.77-51.07c-5.85-18.64-4.34-37.82,2.88-54.43
			c-11.45,18.58-15.09,41.84-8.04,64.31c12.9,41.1,56.67,63.96,97.77,51.07c22.46-7.05,39.48-23.32,48.19-43.34
			C656.21,366.62,641.32,378.81,622.69,384.66z"/>
		<path class="st3" d="M628.55,424.96c-58.87,18.47-121.58-14.28-140.05-73.15c-9.13-29.1-5.74-59.12,7.12-84.29
			c-13.62,25.52-17.38,56.27-8.04,86.05c18.47,58.87,81.18,91.62,140.05,73.15c29.78-9.34,52.87-30.01,66.03-55.76
			C680.35,395.89,657.64,415.83,628.55,424.96z"/>
		<path class="st3" d="M570.82,245.7c-21.12,6.63-37.43,21.41-46.54,39.8c9.35-17,25.01-30.57,44.99-36.84
			c41.1-12.9,84.87,9.97,97.77,51.07c6.27,19.98,4.09,40.58-4.53,57.97c9.88-17.98,12.7-39.81,6.08-60.93
			C655.7,255.67,611.93,232.8,570.82,245.7z"/>
		<g class="st4">
			<polygon class="st5" points="574.05,269.73 572.68,272.37 591.79,266.37 623.45,367.24 625.46,366.61 593.17,263.73 			"/>
		</g>
		<g class="st2">
			<polygon points="551.87,312.44 549.34,317.28 565.95,326.47 568.41,321.59 			"/>
			<polygon points="603.4,373.53 579.97,298.87 577.48,303.82 600.87,378.37 622.93,371.45 625.58,366.23 			"/>
		</g>
	</g>
	<g>
		<defs>
			<polygon id="SVGID_2_" points="897.93,503.85 558.93,309.35 218.93,504.35 219.93,504.35 219.93,768.35 898.93,768.35 
				898.93,503.85 			"/>
		</defs>
		<clipPath id="SVGID_3_">
			<use xlink:href="#SVGID_2_"  style="overflow:visible;"/>
		</clipPath>
		<g class="st6">
			<polygon class="st5" points="888.93,309.35 229.93,309.35 234.93,285.35 883.93,285.35 			"/>
			<polygon class="st2" points="884.93,291.35 233.93,291.35 234.93,285.35 883.93,285.35 			"/>
			<polygon class="st5" points="888.93,333.35 229.93,333.35 234.93,309.35 883.93,309.35 			"/>
			<polygon class="st2" points="884.93,315.35 233.93,315.35 234.93,309.35 883.93,309.35 			"/>
			<polygon class="st5" points="888.93,357.35 229.93,357.35 234.93,333.35 883.93,333.35 			"/>
			<polygon class="st2" points="884.93,339.35 233.93,339.35 234.93,333.35 883.93,333.35 			"/>
			<polygon class="st5" points="888.93,381.35 229.93,381.35 234.93,357.35 883.93,357.35 			"/>
			<polygon class="st2" points="884.93,363.35 233.93,363.35 234.93,357.35 883.93,357.35 			"/>
			<polygon class="st5" points="888.93,405.35 229.93,405.35 234.93,381.35 883.93,381.35 			"/>
			<polygon class="st2" points="884.93,387.35 233.93,387.35 234.93,381.35 883.93,381.35 			"/>
			<polygon class="st5" points="888.93,429.35 229.93,429.35 234.93,405.35 883.93,405.35 			"/>
			<polygon class="st2" points="884.93,411.35 233.93,411.35 234.93,405.35 883.93,405.35 			"/>
			<polygon class="st5" points="888.93,453.35 229.93,453.35 234.93,429.35 883.93,429.35 			"/>
			<polygon class="st2" points="884.93,435.35 233.93,435.35 234.93,429.35 883.93,429.35 			"/>
			<polygon class="st5" points="888.93,477.35 229.93,477.35 234.93,453.35 883.93,453.35 			"/>
			<polygon class="st2" points="884.93,459.35 233.93,459.35 234.93,453.35 883.93,453.35 			"/>
			<polygon class="st5" points="888.93,501.35 229.93,501.35 234.93,477.35 883.93,477.35 			"/>
			<polygon class="st2" points="884.93,483.35 233.93,483.35 234.93,477.35 883.93,477.35 			"/>
			<polygon class="st5" points="888.93,525.35 229.93,525.35 234.93,501.35 883.93,501.35 			"/>
			<polygon class="st2" points="884.93,507.35 233.93,507.35 234.93,501.35 883.93,501.35 			"/>
			<polygon class="st5" points="888.93,549.35 229.93,549.35 234.93,525.35 883.93,525.35 			"/>
			<polygon class="st2" points="884.93,531.35 233.93,531.35 234.93,525.35 883.93,525.35 			"/>
			<polygon class="st5" points="888.93,573.35 229.93,573.35 234.93,549.35 883.93,549.35 			"/>
			<polygon class="st2" points="884.93,555.35 233.93,555.35 234.93,549.35 883.93,549.35 			"/>
			<polygon class="st5" points="888.93,597.35 229.93,597.35 234.93,573.35 883.93,573.35 			"/>
			<polygon class="st2" points="884.93,579.35 233.93,579.35 234.93,573.35 883.93,573.35 			"/>
			<polygon class="st5" points="888.93,621.35 229.93,621.35 234.93,597.35 883.93,597.35 			"/>
			<polygon class="st2" points="884.93,603.35 233.93,603.35 234.93,597.35 883.93,597.35 			"/>
			<polygon class="st5" points="888.93,645.35 229.93,645.35 234.93,621.35 883.93,621.35 			"/>
			<polygon class="st2" points="884.93,627.35 233.93,627.35 234.93,621.35 883.93,621.35 			"/>
			<polygon class="st5" points="888.93,669.35 229.93,669.35 234.93,645.35 883.93,645.35 			"/>
			<polygon class="st2" points="884.93,651.35 233.93,651.35 234.93,645.35 883.93,645.35 			"/>
			<polygon class="st5" points="888.93,693.35 229.93,693.35 234.93,669.35 883.93,669.35 			"/>
			<polygon class="st2" points="884.93,675.35 233.93,675.35 234.93,669.35 883.93,669.35 			"/>
			<polygon class="st5" points="888.93,717.35 229.93,717.35 234.93,693.35 883.93,693.35 			"/>
			<polygon class="st2" points="884.93,699.35 233.93,699.35 234.93,693.35 883.93,693.35 			"/>
			<polygon class="st5" points="888.93,741.35 229.93,741.35 234.93,717.35 883.93,717.35 			"/>
			<polygon class="st2" points="884.93,723.35 233.93,723.35 234.93,717.35 883.93,717.35 			"/>
			<polygon class="st5" points="888.93,765.35 229.93,765.35 234.93,741.35 883.93,741.35 			"/>
			<polygon class="st2" points="884.93,747.35 233.93,747.35 234.93,741.35 883.93,741.35 			"/>
		</g>
	</g>
	<polygon class="st7" points="921.93,516.35 558.93,309.35 558.93,286.35 921.93,493.35 	"/>
	<polygon class="st7" points="195.93,516.35 558.93,309.35 558.93,286.35 195.93,493.35 	"/>
	<g>
		<defs>
			<polygon id="SVGID_4_" points="883.93,309.35 888.93,309.35 883.93,285.35 234.93,285.35 229.93,309.35 234.93,309.35 
				229.93,333.35 234.93,333.35 229.93,357.35 234.93,357.35 229.93,381.35 234.93,381.35 229.93,405.35 234.93,405.35 
				229.93,429.35 234.93,429.35 229.93,453.35 234.93,453.35 229.93,477.35 234.93,477.35 229.93,501.35 234.93,501.35 
				229.93,525.35 234.93,525.35 229.93,549.35 234.93,549.35 229.93,573.35 234.93,573.35 229.93,597.35 234.93,597.35 
				229.93,621.35 234.93,621.35 229.93,645.35 234.93,645.35 229.93,669.35 234.93,669.35 229.93,693.35 234.93,693.35 
				229.93,717.35 234.93,717.35 229.93,741.35 234.93,741.35 229.93,765.35 888.93,765.35 883.93,741.35 888.93,741.35 
				883.93,717.35 888.93,717.35 883.93,693.35 888.93,693.35 883.93,669.35 888.93,669.35 883.93,645.35 888.93,645.35 
				883.93,621.35 888.93,621.35 883.93,597.35 888.93,597.35 883.93,573.35 888.93,573.35 883.93,549.35 888.93,549.35 
				883.93,525.35 888.93,525.35 883.93,501.35 888.93,501.35 883.93,477.35 888.93,477.35 883.93,453.35 888.93,453.35 
				883.93,429.35 888.93,429.35 883.93,405.35 888.93,405.35 883.93,381.35 888.93,381.35 883.93,357.35 888.93,357.35 
				883.93,333.35 888.93,333.35 			"/>
		</defs>
		<clipPath id="SVGID_5_">
			<use xlink:href="#SVGID_4_"  style="overflow:visible;"/>
		</clipPath>
		<polygon class="st8" points="889.93,500.35 558.93,306.35 227.93,500.35 203.93,525.35 554.93,323.35 905.93,525.35 		"/>
	</g>
	<rect x="333.93" y="523.35" class="st5" width="450" height="242"/>
	<polygon class="st2" points="333.93,523.35 330.43,526.85 330.93,765.35 333.93,765.35 	"/>
	<g>
		<rect x="347.93" y="537.35" class="st9" width="422" height="228"/>
		<rect x="347.93" y="549.35" class="st10" width="422" height="4"/>
		<rect x="347.93" y="566.35" class="st10" width="422" height="4"/>
		<rect x="347.93" y="583.35" class="st10" width="422" height="4"/>
		<rect x="347.93" y="600.35" class="st10" width="422" height="4"/>
		<rect x="347.93" y="617.35" class="st10" width="422" height="4"/>
		<rect x="347.93" y="634.35" class="st10" width="422" height="4"/>
		<rect x="347.93" y="651.35" class="st10" width="422" height="4"/>
		<rect x="347.93" y="668.35" class="st10" width="422" height="4"/>
		<rect x="347.93" y="685.35" class="st10" width="422" height="4"/>
		<rect x="347.93" y="702.35" class="st10" width="422" height="4"/>
		<rect x="347.93" y="719.35" class="st10" width="422" height="4"/>
		<rect x="347.93" y="736.35" class="st10" width="422" height="4"/>
		<rect x="347.93" y="753.35" class="st10" width="422" height="4"/>
		<path class="st11" d="M570.43,748.85h-23c-1.38,0-2.5-1.12-2.5-2.5l0,0c0-1.38,1.12-2.5,2.5-2.5h23c1.38,0,2.5,1.12,2.5,2.5l0,0
			C572.93,747.73,571.81,748.85,570.43,748.85z"/>
	</g>
	<polygon class="st2" points="347.93,537.35 347.93,544.35 755.93,544.35 755.93,765.35 769.93,765.35 769.93,544.35 769.93,537.35 
			"/>
</g>
<g class="st2">
	<g>
		<path d="M557.23,476.4v11.92h-8.08v-11.79c-13.51-0.8-23.71-6.36-30.33-13.91l6.62-8.35c5.16,5.83,13.25,11.26,23.71,12.32v-32.19
			c-13.51-3.58-27.55-8.21-27.55-24.5c0-13.78,11.66-23.45,27.55-24.5v-12.05h8.08v12.32c10.99,0.93,19.74,5.3,26.1,12.05
			l-6.62,8.08c-5.17-5.83-12.05-9.01-19.47-10.07v28.74c13.64,3.84,28.08,8.87,28.08,26.23
			C585.31,462.63,577.76,474.95,557.23,476.4z M549.15,422.36v-27.02c-9.54,0.53-16.16,6.09-16.16,13.91
			C532.99,416.8,540.27,419.84,549.15,422.36z M574.05,451.63c0-9.01-7.68-12.32-16.82-15.1v29.94
			C569.94,465.41,574.05,457.73,574.05,451.63z"/>
	</g>
	<g>
		<path d="M648.17,499.72l-3.27,6.01l-4.07-2.22l3.23-5.94c-6.59-4.11-10.21-9.71-11.47-15.33l5.63-2.39
			c1,4.35,3.59,9.31,8.57,12.71l8.83-16.22c-5.83-5.51-11.63-11.7-7.17-19.91c3.78-6.94,12.31-8.62,20.61-4.79l3.31-6.08l4.07,2.22
			l-3.38,6.21c5.29,3.48,8.49,8.08,9.85,13.23l-5.55,2.26c-1.01-4.35-3.61-7.85-7.05-10.41l-7.88,14.49
			c5.82,5.68,11.72,12.17,6.96,20.92C666.1,500.48,658.91,504.62,648.17,499.72z M658.92,470.27l7.41-13.62
			c-4.95-2.35-9.82-1.36-11.96,2.58C652.3,463.03,655.13,466.56,658.92,470.27z M663.44,491.85c2.47-4.54-0.49-8.32-4.34-12.22
			l-8.21,15.09C657.59,497.67,661.77,494.92,663.44,491.85z"/>
	</g>
	<g>
		<path d="M438.11,494.47c-4.76-8.75,1.14-15.24,6.96-20.92l-7.88-14.49c-3.45,2.57-6.05,6.06-7.05,10.41l-5.55-2.26
			c1.35-5.15,4.56-9.75,9.85-13.23l-3.38-6.21l4.07-2.22l3.31,6.08c8.3-3.83,16.83-2.15,20.61,4.79c4.47,8.21-1.34,14.4-7.17,19.91
			l8.83,16.22c4.98-3.4,7.57-8.36,8.57-12.71l5.63,2.39c-1.27,5.62-4.88,11.22-11.47,15.33l3.23,5.94l-4.07,2.22l-3.27-6.01
			C448.57,504.62,441.38,500.48,438.11,494.47z M453.11,459.22c-2.14-3.94-7.01-4.93-11.96-2.58l7.41,13.62
			C452.35,466.56,455.19,463.03,453.11,459.22z M456.59,494.71l-8.21-15.09c-3.84,3.91-6.81,7.68-4.34,12.22
			C445.71,494.92,449.89,497.67,456.59,494.71z"/>
	</g>
</g>
<g>
	<g>
		<path class="st12" d="M559.23,474.4v11.92h-8.08v-11.79c-13.51-0.8-23.71-6.36-30.33-13.91l6.62-8.35
			c5.16,5.83,13.25,11.26,23.71,12.32v-32.19c-13.51-3.58-27.55-8.21-27.55-24.5c0-13.78,11.66-23.45,27.55-24.5v-12.05h8.08v12.32
			c10.99,0.93,19.74,5.3,26.1,12.05l-6.62,8.08c-5.17-5.83-12.05-9.01-19.47-10.07v28.74c13.64,3.84,28.08,8.87,28.08,26.23
			C587.31,460.63,579.76,472.95,559.23,474.4z M551.15,420.36v-27.02c-9.54,0.53-16.16,6.09-16.16,13.91
			C534.99,414.8,542.27,417.84,551.15,420.36z M576.05,449.63c0-9.01-7.68-12.32-16.82-15.1v29.94
			C571.94,463.41,576.05,455.73,576.05,449.63z"/>
	</g>
	<g>
		<path class="st12" d="M650.17,497.72l-3.27,6.01l-4.07-2.22l3.23-5.94c-6.59-4.11-10.21-9.71-11.47-15.33l5.63-2.39
			c1,4.35,3.59,9.31,8.57,12.71l8.83-16.22c-5.83-5.51-11.63-11.7-7.17-19.91c3.78-6.94,12.31-8.62,20.61-4.79l3.31-6.08l4.07,2.22
			l-3.38,6.21c5.29,3.48,8.49,8.08,9.85,13.23l-5.55,2.26c-1.01-4.35-3.61-7.85-7.05-10.41l-7.88,14.49
			c5.82,5.68,11.72,12.17,6.96,20.92C668.1,498.48,660.91,502.62,650.17,497.72z M660.92,468.27l7.41-13.62
			c-4.95-2.35-9.82-1.36-11.96,2.58C654.3,461.03,657.13,464.56,660.92,468.27z M665.44,489.85c2.47-4.54-0.49-8.32-4.34-12.22
			l-8.21,15.09C659.59,495.67,663.77,492.92,665.44,489.85z"/>
	</g>
	<g>
		<path class="st12" d="M440.11,492.47c-4.76-8.75,1.14-15.24,6.96-20.92l-7.88-14.49c-3.45,2.57-6.05,6.06-7.05,10.41l-5.55-2.26
			c1.35-5.15,4.56-9.75,9.85-13.23l-3.38-6.21l4.07-2.22l3.31,6.08c8.3-3.83,16.83-2.15,20.61,4.79c4.47,8.21-1.34,14.4-7.17,19.91
			l8.83,16.22c4.98-3.4,7.57-8.36,8.57-12.71l5.63,2.39c-1.27,5.62-4.88,11.22-11.47,15.33l3.23,5.94l-4.07,2.22l-3.27-6.01
			C450.57,502.62,443.38,498.48,440.11,492.47z M455.11,457.22c-2.14-3.94-7.01-4.93-11.96-2.58l7.41,13.62
			C454.35,464.56,457.19,461.03,455.11,457.22z M458.59,492.71l-8.21-15.09c-3.84,3.91-6.81,7.68-4.34,12.22
			C447.71,492.92,451.89,495.67,458.59,492.71z"/>
	</g>
</g>
</svg>
