<?xml version="1.0" encoding="utf-8"?>
<!-- Generator: Adobe Illustrator 23.0.0, SVG Export Plug-In . SVG Version: 6.00 Build 0)  -->
<svg version="1.1" id="Layer_1" xmlns="http://www.w3.org/2000/svg" xmlns:xlink="http://www.w3.org/1999/xlink" x="0px" y="0px"
	 viewBox="0 0 695 99.25" style="enable-background:new 0 0 695 99.25;" xml:space="preserve">
<path d="M9.4,60.54c3.4,2.27,9.29,6.23,17.79,6.23c3.62,0,9.63-1.25,9.63-5.55c0-3.06-5.1-4.42-10.08-5.55
	c-10.99-2.6-19.83-6.23-19.83-17.44c0-11.55,11.78-17.56,21.98-17.56c8.95,0,14.39,2.15,20.84,5.44l-5.32,11.1
	c-5.32-2.72-9.86-3.74-15.52-3.74c-3.17,0-6.8,1.59-6.8,4.53c0,2.72,3.85,3.85,7.93,4.64C40.78,44.8,52,49.1,52,61
	c0,14.16-14.61,18.58-24.81,18.58c-12.46,0-20.84-5.89-23.11-7.93L9.4,60.54z"/>
<path d="M59.26,21.8h15.18v7.48c3.96-5.55,9.97-8.61,16.2-8.61c15.86,0,26.17,13.14,26.17,29.45S106.5,79.57,90.64,79.57
	c-6.23,0-12.23-2.95-16.2-8.5v22.88H59.26V21.8z M87.81,64.85c8.04,0,13.59-6,13.59-14.73s-5.55-14.73-13.59-14.73
	c-7.93,0-13.37,6-13.37,14.73S79.88,64.85,87.81,64.85z"/>
<path d="M149.42,20.67c6.57,0,12.8,3.06,16.99,8.61V21.8h15.18v56.64h-15.18v-7.36c-4.19,5.55-10.42,8.5-16.99,8.5
	c-15.86,0-26.17-13.14-26.17-29.45S133.56,20.67,149.42,20.67z M153.04,64.85c7.93,0,13.37-6,13.37-14.73s-5.44-14.73-13.37-14.73
	c-8.04,0-13.59,6-13.59,14.73S145,64.85,153.04,64.85z"/>
<path d="M219.1,20.67c7.7,0,14.84,2.61,20.16,6.91l-9.29,10.99c-2.49-2.15-6.12-3.17-10.54-3.17c-8.5,0-15.18,6.12-15.18,14.73
	c0,8.16,6,14.73,15.63,14.73c4.53,0,9.4-1.36,12.23-3.85l8.27,11.67c-5.55,4.3-13.14,6.91-21.3,6.91
	c-16.65,0-30.25-13.03-30.25-29.45C188.86,33.81,202.45,20.67,219.1,20.67z"/>
<path d="M269.78,20.67c15.18,0,27.41,13.14,27.41,29c0,2.95-0.45,5.66-0.45,5.66h-40.78c2.04,7.93,8.5,10.88,15.52,10.88
	c5.21,0,10.99-1.25,15.52-3.85l5.66,11.44c-6.68,3.85-14.27,5.78-21.41,5.78c-16.31,0-31.04-9.97-31.04-29.34
	C240.21,33.92,252.9,20.67,269.78,20.67z M282.35,44.34c-1.25-6.68-6.91-10.54-13.48-10.54c-5.78,0-11.21,3.96-13.14,10.54H282.35z"
	/>
<path d="M374.37,21.8h15.18v7.82c2.61-4.42,9.06-8.95,15.75-8.95c8.84,0,14.61,3.74,17.67,10.31c3.62-6.12,11.55-10.31,17.79-10.31
	c15.63,0,21.98,9.63,21.98,26.51v31.27h-15.18V48.99c0-6.91-0.91-13.59-10.31-13.59c-7.82,0-11.1,6.34-11.1,12.57v30.47h-15.18
	V48.99c0-6.91-0.91-13.59-10.31-13.59c-8.16,0-11.1,6.91-11.1,13.48v29.57h-15.18V21.8H374.37z"/>
<path d="M496.03,20.67c6.57,0,12.8,3.06,16.99,8.61V21.8h15.18v56.64h-15.18v-7.36c-4.19,5.55-10.42,8.5-16.99,8.5
	c-15.86,0-26.17-13.14-26.17-29.45S480.17,20.67,496.03,20.67z M499.66,64.85c7.93,0,13.37-6,13.37-14.73s-5.44-14.73-13.37-14.73
	c-8.04,0-13.59,6-13.59,14.73S491.61,64.85,499.66,64.85z"/>
<path d="M537.3,3.9h15.18v41.35L571.4,21.8h18.69l-22.32,25.38l26.51,31.27h-18.24l-17.33-20.73l-6.23,7.7v13.03H537.3V3.9z"/>
<path d="M619.36,20.67c15.18,0,27.41,13.14,27.41,29c0,2.95-0.45,5.66-0.45,5.66h-40.78c2.04,7.93,8.5,10.88,15.52,10.88
	c5.21,0,10.99-1.25,15.52-3.85l5.66,11.44c-6.68,3.85-14.27,5.78-21.41,5.78c-16.31,0-31.04-9.97-31.04-29.34
	C589.79,33.92,602.48,20.67,619.36,20.67z M631.93,44.34c-1.25-6.68-6.91-10.54-13.48-10.54c-5.78,0-11.21,3.96-13.14,10.54H631.93z
	"/>
<path d="M654.04,21.8h15.18v10.54c1.59-4.53,7.14-11.67,19.71-11.67v16.54c-13.25,0-19.71,6-19.71,19.48v21.75h-15.18V21.8z"/>
</svg>
